<?xml version="1.0" standalone="no"?>
<!DOCTYPE svg PUBLIC "-//W3C//DTD SVG 20010904//EN"
 "http://www.w3.org/TR/2001/REC-SVG-20010904/DTD/svg10.dtd">
<svg version="1.0" xmlns="http://www.w3.org/2000/svg"
 width="1563.000000pt" height="1563.000000pt" viewBox="0 0 1563.000000 1563.000000"
 preserveAspectRatio="xMidYMid meet">

<g transform="translate(0.000000,1563.000000) scale(0.100000,-0.100000)"
fill="#000000" stroke="none">
<path d="M10959 9887 c-49 -18 -101 -60 -133 -106 -75 -108 -57 -254 44 -344
57 -53 103 -70 180 -71 191 -1 325 201 246 370 -27 58 -81 114 -134 140 -47
23 -155 28 -203 11z"/>
<path d="M2515 9123 c-210 -18 -387 -116 -451 -251 -22 -44 -29 -76 -32 -143
-6 -120 13 -181 79 -253 75 -82 164 -135 350 -207 110 -43 143 -81 120 -141
-16 -44 -55 -62 -130 -62 -78 0 -172 36 -272 104 -33 23 -62 40 -64 38 -11
-11 -175 -293 -175 -301 0 -25 114 -94 215 -130 108 -38 207 -51 358 -44 219
9 342 51 443 152 73 72 101 137 113 264 5 47 9 75 10 61 2 -47 31 -144 61
-206 59 -121 188 -209 365 -250 123 -29 456 -27 577 4 215 54 336 163 392 356
19 66 20 104 24 524 l3 452 -225 0 -226 0 0 -302 c-1 -167 -5 -349 -10 -405
-18 -205 -88 -283 -255 -283 -117 0 -184 40 -227 134 -23 50 -23 59 -28 451
l-5 400 -227 3 -228 2 -1 -427 c0 -358 -2 -421 -13 -382 -27 101 -102 187
-216 248 -30 16 -111 48 -180 71 -69 23 -137 49 -152 56 -53 27 -63 80 -22
121 25 25 27 25 137 20 109 -5 162 -18 247 -62 l26 -13 72 144 c40 79 72 148
72 153 0 11 -78 45 -150 64 -101 28 -285 48 -375 40z"/>
<path d="M5290 9101 c-76 -24 -115 -46 -187 -103 l-63 -50 0 71 0 71 -227 -2
-228 -3 0 -660 0 -660 225 0 225 0 5 426 5 426 30 48 c49 78 141 111 241 86
63 -16 98 -43 131 -99 l28 -47 5 -420 5 -420 225 0 225 0 5 425 5 425 27 47
c35 58 82 88 150 95 103 10 186 -30 227 -112 l26 -49 5 -416 5 -415 225 0 225
0 0 490 c0 481 0 491 -23 562 -39 125 -121 206 -267 266 -76 30 -86 32 -211
32 l-131 0 -85 -42 c-60 -30 -107 -63 -159 -113 l-74 -71 -20 28 c-65 91 -165
157 -282 187 -82 21 -223 20 -293 -3z"/>
<path d="M7634 9106 c-62 -19 -160 -75 -209 -118 l-44 -39 -3 68 -3 68 -228 3
-227 2 2 -662 3 -663 225 0 225 0 5 425 c5 389 7 428 24 463 38 77 116 114
214 103 84 -10 136 -46 178 -126 18 -32 19 -68 22 -453 l3 -417 227 2 227 3 5
430 c4 381 7 434 22 461 66 120 244 141 344 40 43 -42 74 -118 74 -178 l0 -28
125 0 c68 0 148 5 177 11 145 30 312 84 417 135 100 49 125 66 196 137 82 83
136 170 183 295 l20 52 -58 0 c-252 0 -495 -190 -581 -453 l-24 -72 -6 95
c-15 209 -104 326 -304 398 -102 37 -255 42 -345 12 -92 -30 -141 -62 -226
-143 -41 -38 -76 -68 -77 -66 -27 39 -64 85 -90 109 -41 39 -156 95 -225 109
-70 15 -217 13 -268 -3z"/>
<path d="M13072 9099 c-260 -70 -469 -292 -518 -549 -26 -136 -11 -265 51
-422 7 -17 -11 -18 -289 -18 -163 0 -296 2 -296 5 0 2 147 223 326 490 l325
485 -655 0 -656 0 0 -175 0 -175 271 0 c156 0 269 -4 267 -9 -1 -5 -142 -216
-313 -469 l-310 -459 -3 318 -2 319 -174 0 c-98 0 -197 -5 -225 -12 l-51 -11
0 -329 0 -328 898 2 897 3 3 168 2 169 40 -59 c96 -145 271 -262 450 -302 69
-16 271 -13 357 5 99 20 189 53 260 95 61 37 177 148 206 197 l17 30 -112 60
c-62 33 -136 71 -164 85 l-51 26 -39 -40 c-21 -22 -68 -54 -104 -72 -60 -30
-72 -32 -165 -32 -96 0 -103 1 -165 36 -78 43 -120 102 -128 179 l-5 50 476 0
c457 0 476 1 482 19 8 27 -12 215 -31 285 -59 221 -246 391 -486 440 -110 23
-292 20 -386 -5z m299 -284 c81 -29 133 -86 153 -167 l6 -28 -250 0 c-281 0
-268 -4 -231 75 52 111 195 165 322 120z"/>
<path d="M10250 9030 c0 -61 -8 -72 -30 -45 -18 21 -128 87 -139 83 -14 -5 52
-141 104 -213 88 -124 211 -209 398 -274 141 -49 127 -75 127 239 l0 270 -230
0 -230 0 0 -60z"/>
<path d="M10820 8802 l0 -289 51 -11 c28 -7 127 -12 225 -12 l174 0 0 300 0
300 -225 0 -225 0 0 -288z"/>
<path d="M8720 8100 l0 -340 225 0 225 0 2 248 3 247 24 -72 c34 -105 86 -188
171 -274 116 -117 261 -179 417 -179 l73 0 -6 28 c-11 45 -50 144 -79 202
-122 241 -297 357 -680 451 -100 24 -140 29 -247 29 l-128 0 0 -340z"/>
<path d="M10574 8346 c-267 -97 -409 -237 -503 -493 -17 -46 -27 -83 -23 -83
17 0 129 73 162 106 20 19 39 34 43 34 4 0 7 -34 7 -75 l0 -75 223 2 222 3 3
308 2 307 -22 0 c-13 -1 -64 -16 -114 -34z"/>
<path d="M14207 8306 c-96 -26 -182 -114 -208 -209 -15 -57 -6 -154 20 -205
49 -96 136 -153 246 -160 97 -6 166 21 230 89 62 67 79 108 79 199 0 91 -22
146 -83 207 -77 77 -185 107 -284 79z"/>
</g>
</svg>
